<svg version="1.2" baseProfile="tiny-ps" xmlns="http://www.w3.org/2000/svg" viewBox="0 0 218 323" width="218" height="323">
	<title>image1-wmf</title>
	<defs>
		<clipPath clipPathUnits="userSpaceOnUse" id="cp1">
			<path d="M0 0L218 0L218 323L0 323Z" />
		</clipPath>
	</defs>
	<style>
		tspan { white-space:pre }
		.shp0 { fill: #fefefe } 
	</style>
	<g id="Page 1" clip-path="url(#cp1)">
		<path id="Path 2" fill-rule="evenodd" class="shp0" d="M214.97 53.65L1.17 53.65L1.17 36.62L54.7 36.62L59.1 36.32L63.4 35.54L67.51 34.27L71.43 32.41L75.05 30.25L78.28 27.61L81.31 24.67L83.95 21.34L86.1 17.72L87.87 13.9L89.24 9.79L90.02 5.48L90.31 0.98L125.93 0.98L126.22 5.48L127 9.79L128.28 13.9L130.13 17.72L132.29 21.34L134.93 24.67L137.86 27.61L141.19 30.25L144.81 32.41L148.73 34.27L152.74 35.54L157.04 36.32L161.54 36.62L214.97 36.62L214.97 53.65ZM151.27 124.54L133.66 124.54L133.66 89.19L133.46 86.45L132.87 84.01L131.9 81.95L130.43 80.19L128.67 78.91L126.71 77.94L124.46 77.35L121.92 77.15L119.27 77.45L116.73 78.03L114.48 79.11L112.23 80.58L110.27 82.54L108.41 84.89L108.41 124.54L90.8 124.54L90.8 63.74L106.36 63.74L106.36 71.47L109.2 68.63L112.23 66.19L115.56 64.42L118.98 63.05L122.7 62.27L126.61 61.98L130.33 62.17L133.75 62.76L136.98 63.74L139.82 65.11L142.46 66.87L144.71 69.03L146.77 71.47L148.33 74.12L149.61 77.05L150.49 80.09L151.07 83.42L151.27 86.94L151.27 124.54ZM52.15 121.31L50.1 122.48L47.65 123.36L44.91 123.95L41.78 124.34L38.36 124.54L1.17 124.54L1.17 63.74L37.38 63.74L40.61 63.93L43.54 64.33L46.18 64.91L48.53 65.79L50.59 66.97L52.45 68.44L54.21 70.3L55.58 72.45L56.55 74.7L57.14 77.15L57.34 79.8L57.14 82.63L56.55 85.18L55.58 87.43L54.3 89.49L52.54 91.15L50.49 92.62L47.94 93.8L50.88 94.87L53.23 96.34L55.18 98.1L56.75 100.16L57.83 102.51L58.51 105.15L58.71 108.09L58.51 110.83L57.92 113.38L56.95 115.73L55.67 117.88L53.91 119.84L52.15 121.31ZM18.69 88.71L32.09 88.71L34.34 88.51L36.3 88.02L37.77 87.14L38.75 85.87L39.43 84.3L39.63 82.34L39.43 80.58L39.04 79.11L38.26 77.94L37.08 76.96L35.71 76.37L33.95 75.88L31.9 75.78L18.69 75.78L18.69 88.71ZM33.17 112.5L35.32 112.3L37.18 111.91L38.65 111.32L39.82 110.34L40.61 109.17L41.1 107.7L41.29 106.03L41.1 104.27L40.61 102.71L39.82 101.53L38.65 100.55L37.18 99.87L35.32 99.47L33.17 99.28L18.79 99.28L18.79 112.5L33.17 112.5ZM64.38 63.74L81.99 63.74L81.99 87.24L64.38 87.24L64.38 63.74ZM217.22 90.86L217.02 95.36L216.04 99.87L173.38 99.87L174.07 102.22L175.24 104.37L176.71 106.23L178.47 107.9L180.72 109.27L183.75 110.64L187.18 111.62L190.8 112.2L194.71 112.4L199.61 112.11L204.3 111.42L208.8 110.24L213.01 108.68L213.01 122.48L209.29 123.85L205.18 124.93L200.78 125.62L195.98 126.11L190.8 126.3L185.91 126.01L181.31 125.32L176.9 124.15L172.89 122.48L169.18 120.43L165.65 117.78L163.01 115.24L160.76 112.4L158.9 109.27L157.53 105.94L156.46 102.22L155.87 98.3L155.67 94.19L155.87 90.17L156.36 86.36L157.34 82.83L158.61 79.5L160.17 76.47L161.93 73.82L163.99 71.47L166.24 69.52L169.47 67.26L172.8 65.4L176.22 63.93L179.74 62.86L183.26 62.27L186.89 61.98L191.29 62.27L195.4 62.86L199.12 63.93L202.64 65.4L205.77 67.26L208.41 69.32L210.66 71.67L212.42 74.21L214.28 77.94L215.75 82.05L216.83 86.36L217.22 90.86ZM200.39 86.36L200 84.2L199.21 82.05L197.84 79.89L196.47 78.23L194.81 77.05L192.66 76.17L190.31 75.59L187.57 75.39L184.73 75.68L182.09 76.27L179.74 77.35L177.59 78.91L176.02 80.38L174.85 82.05L173.97 84.01L173.48 86.16L173.28 88.41L200.29 88.41L200.39 86.36ZM64.38 101.04L81.99 101.04L81.99 124.44L64.38 124.44L64.38 101.04ZM174.46 182.01L172.7 187.2L170.35 192.59L167.61 197.97L164.18 203.36L158.71 198.36L153.13 193.47L147.75 188.77L142.46 184.36L137.47 180.25L140.31 175.45L142.56 170.56L144.32 165.66L145.59 160.67L146.38 155.48L148.53 158.12L151.07 160.47L153.72 162.72L159.59 166.84L161.25 167.91L163.3 169.19L165.55 170.65L168.1 172.22L170.94 173.98L173.38 175.45L175.93 177.12L174.46 182.01ZM144.42 223.04L137.77 228.22L133.56 223.82L129.45 219.71L125.54 215.89L121.72 212.46L118.2 209.23L114.97 206.49L112.13 204.04L112.62 203.75L113.01 203.36L113.5 203.06L118.78 199.24L123.48 195.52L127.69 191.7L131.41 187.89L134.54 184.17L139.63 188.28L144.81 192.78L150.29 197.38L155.77 202.28L161.35 207.37L158.31 210.89L154.89 214.42L151.17 217.65L144.42 223.04ZM127.2 236.25L120.74 241.54L114.28 247.12L108.12 253L101.86 247.12L95.5 241.54L89.04 236.25L82.39 231.16L86.1 227.25L89.72 223.53L93.34 220.1L96.67 216.97L99.9 214.03L102.93 211.48L105.67 209.13L108.12 207.17L110.57 209.13L113.31 211.48L116.34 214.03L119.57 216.97L122.89 220.1L126.42 223.53L130.13 227.25L133.85 231.16L127.2 236.25ZM109.29 156.07L110.86 159.49L112.72 162.92L114.97 166.25L117.61 169.58L120.74 172.81L124.26 175.94L127.49 178.39L130.82 181.13L127.79 184.66L124.26 188.18L120.25 191.8L115.75 195.43L110.66 199.05L109.59 199.93L108.12 200.91L106.65 199.93L105.58 199.05L100.49 195.43L95.89 191.8L91.97 188.18L88.45 184.66L85.42 181.13L88.75 178.39L91.88 175.94L95.5 172.81L98.63 169.58L101.27 166.25L103.52 162.92L105.38 159.49L106.95 156.07L108.12 152.74L109.29 156.07ZM142.17 134.62L142.17 135.6L142.07 137.27L142.07 139.32L142.17 141.58L142.17 143.83L142.07 149.11L141.68 154.11L141 158.91L139.82 163.61L138.26 168.21L136.3 172.71L133.66 177.12L130.43 174.47L127.3 172.12L123.87 169.09L120.94 165.95L118.49 162.82L116.44 159.49L114.68 156.26L113.4 153.03L112.33 149.8L111.54 146.67L111.05 143.73L110.66 140.89L110.57 138.34L110.57 134.62L105.67 134.62L105.67 138.34L105.48 140.89L105.18 143.73L104.69 146.67L103.91 149.8L102.84 153.03L101.56 156.26L99.8 159.49L97.75 162.82L95.3 165.95L92.37 169.09L88.94 172.12L85.81 174.47L82.58 177.12L79.94 172.71L77.89 168.21L76.42 163.61L75.24 158.91L74.56 154.11L74.17 149.11L74.07 143.83L74.07 134.62L142.17 134.62ZM61.35 214.42L57.92 210.89L54.89 207.37L60.47 202.28L65.95 197.38L71.33 192.78L76.61 188.28L81.6 184.17L84.83 187.89L88.55 191.7L92.76 195.52L97.45 199.24L102.74 203.06L103.23 203.36L103.62 203.75L104.11 204.04L101.27 206.49L97.94 209.23L94.42 212.46L90.7 215.89L86.79 219.71L82.68 223.82L78.47 228.22L71.82 223.04L65.07 217.65L61.35 214.42ZM59.59 164.78L62.43 162.72L65.17 160.47L67.61 158.12L69.86 155.48L70.64 160.67L71.92 165.66L73.68 170.56L75.93 175.45L78.77 180.25L73.78 184.36L68.49 188.77L63.11 193.47L57.53 198.36L51.96 203.36L48.63 197.97L45.79 192.59L43.54 187.2L41.78 182.01L40.31 177.12L42.86 175.45L45.3 173.98L48.04 172.22L50.68 170.65L52.93 169.19L54.99 167.91L56.65 166.84L59.59 164.78ZM68.59 226.76L75.15 231.85L69.57 238.31L64.09 245.16L58.71 252.41L53.72 260.04L48.34 256.23L43.05 252.6L38.06 249.08L33.37 245.65L29.06 242.23L25.24 238.9L29.75 233.32L34.64 227.74L39.92 221.96L45.5 216.28L51.27 210.7L54.5 214.42L58.02 218.04L61.94 221.47L68.59 226.76ZM171.43 201.3L174.36 195.72L176.81 190.24L178.76 184.95L180.33 179.86L184.63 182.6L193.44 188.28L197.75 191.22L201.86 193.96L205.77 196.7L209.29 199.34L212.42 201.79L211.25 205.8L209.88 209.92L208.22 214.13L206.26 218.43L203.91 222.74L201.17 227.05L198.04 231.26L194.42 235.47L189.92 229.79L184.83 224.01L179.45 218.24L173.77 212.46L167.9 206.78L171.43 201.3ZM117.71 250.65L124.07 245.16L130.53 239.88L137.18 234.78L142.76 241.25L148.24 248.1L153.52 255.25L158.51 262.79L152.83 267L147.26 271.21L141.78 275.71L136.59 280.31L131.8 285.21L127.98 278.55L124.07 272.38L119.96 266.7L115.85 261.42L111.45 256.52L117.71 250.65ZM170.64 216.28L176.32 221.96L181.6 227.64L186.49 233.32L190.99 238.9L187.18 242.23L182.87 245.65L178.18 249.08L173.19 252.6L167.9 256.23L162.52 260.04L157.43 252.41L152.15 245.16L146.67 238.31L141 231.85L147.65 226.76L154.2 221.47L158.12 218.04L161.74 214.42L164.87 210.7L170.64 216.28ZM214.97 134.62L214.97 155.09L211.05 153.62L208.41 152.74L205.57 151.76L202.74 150.68L199.9 149.7L197.16 148.72L194.61 147.74L192.27 146.76L190.11 145.98L188.45 145.2L187.18 144.51L185.91 143.73L184.93 142.85L184.24 141.87L183.85 140.69L183.66 139.13L183.56 137.17L183.56 134.62L178.67 134.62L178.67 159.98L178.57 161.55L178.37 163.51L178.08 165.95L177.59 168.89L177 172.03L173.48 169.87L170.74 168.11L168.2 166.54L165.95 165.07L163.89 163.8L162.23 162.72L158.9 160.47L155.97 158.22L153.42 155.97L151.27 153.72L149.51 151.46L148.24 149.02L147.36 146.47L147.06 143.73L147.06 134.62L214.97 134.62ZM186.3 149.51L188.35 150.49L190.8 151.46L193.54 152.54L196.57 153.72L199.8 154.79L209.49 158.32L212.42 159.3L214.97 160.18L214.97 183.97L214.87 186.52L214.58 189.45L214.18 192.78L213.6 196.5L209.68 193.57L205.48 190.53L200.88 187.4L196.08 184.26L191.19 181.03L186.3 177.9L181.5 174.86L182.29 171.14L182.78 167.82L183.17 164.88L183.36 162.43L183.46 160.57L183.56 159.3L183.56 148.04L184.15 148.33L184.73 148.72L186.3 149.51ZM85.71 239.88L92.17 245.16L98.53 250.65L104.69 256.52L100.39 261.42L96.18 266.7L92.17 272.38L88.26 278.55L84.44 285.21L79.65 280.31L74.46 275.71L68.98 271.21L63.4 267L57.73 262.79L62.72 255.25L68 248L73.48 241.25L79.06 234.78L85.71 239.88ZM87.87 289.12L91.68 282.37L95.6 276.1L99.61 270.33L103.81 265.04L108.12 260.14L112.42 265.04L116.63 270.33L120.64 276.1L124.56 282.37L128.28 289.12L125.44 292.75L122.8 296.56L120.45 300.48L118.49 304.5L116.93 308.71L115.75 313.01L115.07 317.52L114.87 322.12L101.37 322.12L101.17 317.52L100.39 313.01L99.22 308.71L97.65 304.59L95.69 300.48L93.44 296.56L90.8 292.75L87.96 289.12L87.87 289.12ZM32.68 160.57L32.88 162.43L33.07 164.88L33.37 167.82L33.95 171.14L34.64 174.86L29.94 177.9L20.16 184.17L15.36 187.4L10.76 190.53L6.46 193.57L2.64 196.5L2.05 192.78L1.57 189.45L1.37 186.52L1.17 183.97L1.17 160.18L6.75 158.32L9.88 157.14L13.21 155.97L16.44 154.79L19.67 153.72L22.7 152.54L25.44 151.46L27.89 150.49L29.94 149.51L31.41 148.72L32.09 148.33L32.68 147.94L32.68 160.57ZM42.46 212.46L36.79 218.24L31.41 224.01L26.32 229.79L21.72 235.47L18.2 231.26L15.07 227.05L12.33 222.74L9.98 218.43L8.02 214.13L6.36 209.92L4.89 205.8L3.82 201.79L6.95 199.34L10.47 196.7L14.38 193.96L18.49 191.22L22.8 188.28L31.6 182.6L35.91 179.86L37.47 184.95L39.43 190.24L41.88 195.72L44.81 201.3L48.34 206.78L42.46 212.46ZM27.69 145.2L26.03 145.88L23.97 146.76L21.62 147.74L19.08 148.72L13.4 150.68L10.57 151.76L7.83 152.74L5.09 153.62L1.17 154.99L1.17 134.62L69.18 134.62L69.18 143.73L68.79 146.47L68 149.02L66.73 151.46L64.97 153.72L62.82 155.97L60.27 158.22L57.24 160.47L53.91 162.72L52.25 163.8L50.29 165.07L48.04 166.54L45.5 168.11L42.76 169.87L39.14 172.03L38.55 168.89L38.16 165.95L37.87 163.51L37.67 161.55L37.57 159.98L37.57 134.62L32.68 134.62L32.68 137.17L32.58 139.13L32.29 140.69L31.9 141.87L31.31 142.85L30.33 143.63L28.96 144.51L27.69 145.2Z" />
	</g>
</svg>