<svg version="1.2" baseProfile="tiny-ps" xmlns="http://www.w3.org/2000/svg" viewBox="0 0 228 60" width="228" height="60">
	<title>image2-wmf</title>
	<defs>
		<clipPath clipPathUnits="userSpaceOnUse" id="cp1">
			<path d="M0 0L228 0L228 60L0 60Z" />
		</clipPath>
	</defs>
	<style>
		tspan { white-space:pre }
		.shp0 { fill: #fefefe } 
	</style>
	<g id="Page 1" clip-path="url(#cp1)">
		<path id="Path 2" fill-rule="evenodd" class="shp0" d="M48.45 9.27L48.45 13.15L0.55 13.15L0.55 9.27L12.58 9.27L14.38 9.07L16.03 8.51L17.55 7.54L18.8 6.3L19.7 4.84L20.32 3.11L20.53 1.31L28.54 1.31L28.75 3.11L29.3 4.84L30.27 6.3L31.52 7.54L32.97 8.51L34.69 9.07L36.49 9.27L48.45 9.27ZM24.4 29.34L24.33 29.27L22.81 28.1L21.49 26.99L20.39 25.88L20.87 25.54L21.29 25.19L22.6 24.01L23.64 22.7L24.53 21.18L25.36 22.63L26.47 24.01L27.71 25.19L28.68 25.88L27.58 26.99L26.26 28.1L24.74 29.27L24.6 29.34L24.53 29.41L24.4 29.34ZM29.51 33.7L27.92 32.25L26.54 31L28.06 29.83L29.44 28.65L30.55 27.47L32.97 29.48L35.52 31.76L34.69 32.66L33.73 33.49L31.24 35.43L29.51 33.7ZM31.45 15.36L31.45 17.44L31.38 19.24L31.17 20.83L30.75 22.42L30.06 23.88L29.65 23.6L29.23 23.25L28.06 22.15L27.16 20.97L26.54 19.72L26.12 18.55L25.85 17.44L25.78 16.4L25.78 15.36L31.45 15.36ZM38.91 25.26L38.43 26.71L37.8 28.24L36.97 29.76L35.25 28.24L33.59 26.78L32 25.47L32.97 23.53L33.52 21.52L34.56 22.42L35.66 23.18L36.35 23.6L37.18 24.15L38.91 25.19L38.91 25.26ZM20.53 40.69L22.81 42.77L21.42 44.5L20.04 46.44L18.73 48.65L17.21 47.2L15.55 45.81L13.82 44.5L15.9 41.52L18.11 38.75L20.53 40.69ZM33.17 41.52L35.25 44.5L33.52 45.81L31.86 47.2L30.27 48.65L29.03 46.44L27.64 44.5L26.19 42.77L28.54 40.69L30.96 38.75L33.17 41.52ZM17.55 15.36L23.29 15.36L23.29 16.54L23.15 17.51L22.95 18.62L22.46 19.79L21.84 20.97L21.01 22.15L19.84 23.25L19.42 23.6L19.01 23.88L18.31 22.42L17.83 20.83L17.62 19.24L17.55 17.44L17.55 15.36ZM6.98 21.8L7.12 22.84L7.33 24.08L3.87 26.3L2.21 27.4L0.76 28.51L0.62 27.34L0.62 21.87L1.24 21.59L3.52 20.83L4.91 20.35L6.01 19.86L6.98 19.52L6.98 21.8ZM8.29 33.49L6.43 35.5L4.77 37.44L3.52 35.92L2.63 34.33L1.94 32.73L1.38 31.14L2.42 30.38L3.66 29.48L5.05 28.51L7.95 26.57L8.57 28.17L9.33 29.83L10.3 31.49L8.29 33.49ZM19.63 28.65L20.94 29.83L22.53 31L21.15 32.25L19.56 33.7L17.83 35.43L15.34 33.49L14.38 32.66L13.55 31.76L16.1 29.48L18.52 27.47L19.63 28.65ZM0.9 19.17L0.62 19.24L0.62 15.36L15.14 15.36L15.14 17.44L14.93 18.41L14.31 19.31L13.34 20.21L12.03 21.11L10.57 22.08L9.61 22.7L9.47 21.66L9.4 21.04L9.4 15.36L6.98 15.36L6.98 16.19L6.91 16.61L6.77 16.82L6.5 17.02L5.94 17.3L5.18 17.58L4.28 17.92L3.25 18.34L2.21 18.69L1.24 19.03L0.9 19.17ZM48.45 15.36L48.45 19.24L48.17 19.1L47.83 19.03L46.86 18.69L45.82 18.27L44.78 17.92L43.82 17.58L43.06 17.23L42.57 17.02L42.3 16.82L42.16 16.61L42.09 16.19L42.09 15.36L39.67 15.36L39.67 21.04L39.6 21.66L39.46 22.7L38.5 22.08L37.04 21.11L35.73 20.21L34.76 19.31L34.14 18.41L33.93 17.44L33.93 15.36L48.45 15.36ZM48.45 26.44L48.38 27.34L48.24 28.51L46.79 27.4L43.47 25.19L41.74 24.08L41.95 22.84L42.02 21.8L42.09 21.11L42.09 19.52L43.4 20L45.06 20.62L47 21.31L47.76 21.59L48.45 21.87L48.45 26.44ZM25.99 46.3L27.3 48.3L28.61 50.59L27.51 52.11L26.75 53.77L26.19 55.57L26.06 57.37L23.01 57.37L22.81 55.57L22.32 53.77L21.49 52.11L20.46 50.59L21.77 48.3L23.08 46.3L24.53 44.57L25.99 46.3ZM13.89 40.07L11.82 43.11L9.88 41.73L8.09 40.48L6.5 39.24L8.02 37.3L9.81 35.36L11.75 33.43L12.72 34.39L13.75 35.36L16.17 37.23L13.89 40.07ZM11.82 24.15L12.72 23.6L13.41 23.18L14.51 22.42L15.48 21.52L16.1 23.53L17.07 25.47L14.65 27.47L12.09 29.76L11.27 28.24L10.57 26.64L10.16 25.19L10.85 24.78L11.82 24.15ZM26.88 38.89L24.53 40.97L22.18 38.89L19.77 36.96L21.08 35.57L22.39 34.39L23.5 33.36L24.53 32.53L25.5 33.36L26.68 34.39L27.92 35.57L29.3 36.96L26.88 38.89ZM39.26 35.36L40.98 37.3L42.57 39.24L40.98 40.48L39.19 41.73L37.25 43.11L35.18 40.07L32.9 37.23L35.32 35.36L36.35 34.39L37.32 33.43L39.26 35.36ZM42.57 27.54L44.02 28.51L45.41 29.48L46.65 30.38L47.69 31.14L47.13 32.73L46.44 34.33L45.48 35.92L44.3 37.44L42.64 35.5L40.78 33.43L38.77 31.49L39.74 29.83L40.5 28.17L41.05 26.57L42.57 27.54ZM174.58 57.37L160.75 57.37L160.75 29.55L160.62 27.75L160.34 26.16L159.79 24.71L159.1 23.46L158.2 22.42L156.81 21.38L155.23 20.62L153.43 20.21L151.42 20L149.35 20.21L147.35 20.69L145.55 21.52L143.82 22.77L142.23 24.29L140.78 26.09L140.78 57.37L126.89 57.37L126.89 9.41L139.19 9.41L139.19 15.5L141.06 13.56L143.13 11.83L145.27 10.45L147.55 9.41L149.97 8.65L152.46 8.17L155.16 8.03L158.06 8.17L160.82 8.65L163.31 9.41L165.59 10.52L167.67 11.9L169.46 13.56L171.05 15.5L172.3 17.65L173.33 19.86L174.02 22.35L174.44 24.91L174.58 27.75L174.58 57.37ZM96.34 54.88L94.68 55.78L92.82 56.47L90.61 57.02L88.19 57.3L85.49 57.37L56.12 57.37L56.12 9.41L84.66 9.41L87.22 9.55L89.57 9.83L91.64 10.38L93.51 11.07L95.17 11.97L96.55 13.08L97.93 14.6L99.04 16.26L99.8 18.06L100.28 20.07L100.42 22.15L100.28 24.36L99.87 26.37L99.11 28.17L98.07 29.76L96.69 31.07L95.03 32.18L93.09 33.15L95.03 33.91L96.76 34.88L98.21 35.99L99.45 37.37L100.35 38.82L101.04 40.48L101.39 42.35L101.53 44.43L101.39 46.57L100.97 48.65L100.21 50.52L99.11 52.18L97.72 53.77L96.34 54.88ZM69.94 29.13L80.52 29.13L82.1 29L83.42 28.72L84.52 28.24L85.35 27.47L85.98 26.57L86.32 25.47L86.46 24.15L86.32 22.77L85.98 21.59L85.35 20.62L84.45 19.86L83.35 19.38L82.04 19.03L80.38 18.89L69.94 18.89L69.94 29.13ZM81.41 47.89L83.07 47.82L84.52 47.47L85.7 46.99L86.6 46.23L87.22 45.33L87.63 44.15L87.77 42.84L87.63 41.38L87.22 40.21L86.6 39.24L85.7 38.48L84.52 37.92L83.07 37.65L81.41 37.51L70.01 37.51L70.01 47.89L81.41 47.89ZM106.02 9.41L119.91 9.41L119.91 28.03L106.02 28.03L106.02 9.41ZM227.86 29.9L227.93 32.6L227.59 35.29L227.03 37.92L193.31 37.92L193.86 39.79L194.76 41.52L195.86 42.98L197.31 44.29L199.04 45.33L201.53 46.44L204.16 47.2L207.06 47.68L210.17 47.82L214.04 47.61L217.7 47.06L221.23 46.16L224.61 44.91L224.61 55.78L221.64 56.89L218.39 57.72L214.87 58.34L211.14 58.69L207.06 58.82L203.74 58.69L200.56 58.27L197.52 57.58L194.69 56.61L192.06 55.36L189.5 53.91L187.22 52.11L185.08 50.1L183.35 47.82L181.9 45.4L180.73 42.7L179.97 39.86L179.48 36.75L179.35 33.43L179.48 30.24L179.9 27.27L180.59 24.5L181.63 21.87L182.87 19.52L184.25 17.37L185.84 15.5L187.64 13.91L190.2 12.18L192.82 10.66L195.52 9.55L198.28 8.72L201.12 8.17L203.95 8.03L206.78 8.17L209.41 8.44L211.9 9L214.25 9.76L216.39 10.73L218.81 12.18L220.95 13.84L222.68 15.64L224.13 17.65L225.3 19.86L226.2 22.21L227.03 24.64L227.59 27.27L227.86 29.9ZM214.59 27.27L214.32 25.61L213.69 23.88L212.66 22.15L211.55 20.9L210.17 19.86L208.58 19.17L206.64 18.75L204.43 18.62L202.22 18.82L200.22 19.31L198.28 20.21L196.55 21.38L195.38 22.56L194.48 23.88L193.79 25.4L193.37 27.06L193.17 28.93L214.52 28.93L214.59 27.27ZM106.02 38.82L119.91 38.82L119.91 57.37L106.02 57.37L106.02 38.82Z" />
	</g>
</svg>